<svg width="198" height="34" viewBox="0 0 198 34" fill="none" xmlns="http://www.w3.org/2000/svg">
<path d="M45.6304 30H44.8833V23.5752H48.4648V24.2388H45.6304V26.5898H48.2935V27.2534H45.6304V30ZM54.3843 23.5752V27.7324C54.3843 28.4648 54.1631 29.0405 53.7207 29.4595C53.2783 29.8784 52.6704 30.0879 51.897 30.0879C51.1235 30.0879 50.5244 29.877 50.0996 29.4551C49.6777 29.0332 49.4668 28.4531 49.4668 27.7148V23.5752H50.2139V27.7676C50.2139 28.3037 50.3604 28.7153 50.6533 29.0024C50.9463 29.2896 51.377 29.4331 51.9453 29.4331C52.4873 29.4331 52.9048 29.2896 53.1978 29.0024C53.4907 28.7124 53.6372 28.2979 53.6372 27.7588V23.5752H54.3843ZM56.0894 30V23.5752H56.8364V29.3232H59.6709V30H56.0894ZM60.7651 30V23.5752H61.5122V29.3232H64.3467V30H60.7651ZM73.2043 28.2905C73.2043 28.856 72.9992 29.2969 72.5891 29.6133C72.1789 29.9297 71.6223 30.0879 70.9191 30.0879C70.1574 30.0879 69.5715 29.9897 69.1613 29.7935V29.0728C69.425 29.1841 69.7121 29.272 70.0227 29.3364C70.3332 29.4009 70.6408 29.4331 70.9455 29.4331C71.4436 29.4331 71.8186 29.3394 72.0705 29.1519C72.3225 28.9614 72.4484 28.6978 72.4484 28.3608C72.4484 28.1382 72.403 27.9565 72.3122 27.8159C72.2243 27.6724 72.0749 27.5405 71.864 27.4204C71.656 27.3003 71.3381 27.1641 70.9104 27.0117C70.3127 26.7979 69.885 26.5444 69.6271 26.2515C69.3723 25.9585 69.2448 25.5762 69.2448 25.1045C69.2448 24.6094 69.4309 24.2153 69.8029 23.9224C70.175 23.6294 70.6672 23.4829 71.2795 23.4829C71.9182 23.4829 72.5056 23.6001 73.0417 23.8345L72.8088 24.4849C72.2785 24.2622 71.7629 24.1509 71.2619 24.1509C70.8664 24.1509 70.5573 24.2358 70.3347 24.4058C70.112 24.5757 70.0007 24.8115 70.0007 25.1133C70.0007 25.3359 70.0417 25.519 70.1237 25.6626C70.2058 25.8032 70.3435 25.9336 70.5368 26.0537C70.7331 26.1709 71.0319 26.3013 71.4333 26.4448C72.1071 26.6851 72.57 26.9429 72.822 27.2183C73.0769 27.4937 73.2043 27.8511 73.2043 28.2905ZM76.4958 30H75.7487V24.2388H73.7141V23.5752H78.5305V24.2388H76.4958V30ZM83.5402 30L82.7404 27.9565H80.1652L79.3742 30H78.6184L81.1584 23.5488H81.7868L84.3137 30H83.5402ZM82.5075 27.2842L81.7604 25.2935C81.6638 25.0415 81.5642 24.7324 81.4616 24.3662C81.3972 24.6475 81.3049 24.9565 81.1848 25.2935L80.4289 27.2842H82.5075ZM87.9479 24.1509C87.2419 24.1509 86.6838 24.3867 86.2736 24.8584C85.8664 25.3271 85.6628 25.9702 85.6628 26.7876C85.6628 27.6284 85.8591 28.2788 86.2517 28.7388C86.6472 29.1958 87.2097 29.4243 87.9392 29.4243C88.3874 29.4243 88.8986 29.3438 89.4729 29.1826V29.8374C89.0275 30.0044 88.4782 30.0879 87.8249 30.0879C86.8786 30.0879 86.1477 29.8008 85.632 29.2266C85.1193 28.6523 84.863 27.8364 84.863 26.7788C84.863 26.1167 84.986 25.5366 85.2321 25.0386C85.4812 24.5405 85.8386 24.1567 86.3044 23.8872C86.7731 23.6177 87.3239 23.4829 87.9567 23.4829C88.6306 23.4829 89.2194 23.606 89.7233 23.8521L89.4069 24.4937C88.9206 24.2651 88.4343 24.1509 87.9479 24.1509ZM95.5153 30H94.6364L92.2941 26.8843L91.6218 27.4819V30H90.8747V23.5752H91.6218V26.7612L94.5354 23.5752H95.4187L92.8347 26.3657L95.5153 30ZM106.148 30H105.41L104.114 25.6978C104.052 25.5073 103.983 25.2671 103.907 24.9771C103.831 24.687 103.791 24.5127 103.788 24.4541C103.724 24.8408 103.621 25.2642 103.481 25.7241L102.224 30H101.486L99.7763 23.5752H100.567L101.582 27.5435C101.723 28.1001 101.826 28.604 101.89 29.0552C101.969 28.519 102.086 27.9946 102.242 27.4819L103.393 23.5752H104.184L105.392 27.5171C105.533 27.9712 105.652 28.4839 105.748 29.0552C105.804 28.6392 105.91 28.1323 106.065 27.5347L107.076 23.5752H107.867L106.148 30ZM112.454 30H108.873V23.5752H112.454V24.2388H109.62V26.3086H112.283V26.9678H109.62V29.332H112.454V30ZM113.883 23.5752H115.698C116.55 23.5752 117.167 23.7026 117.548 23.9575C117.929 24.2124 118.119 24.6152 118.119 25.166C118.119 25.5469 118.012 25.8618 117.798 26.1108C117.587 26.3569 117.278 26.5166 116.871 26.5898V26.6338C117.847 26.8008 118.334 27.3135 118.334 28.1719C118.334 28.7461 118.14 29.1943 117.75 29.5166C117.363 29.8389 116.821 30 116.124 30H113.883V23.5752ZM114.63 26.3262H115.86C116.388 26.3262 116.767 26.2441 116.998 26.0801C117.23 25.9131 117.346 25.6333 117.346 25.2407C117.346 24.8804 117.217 24.6211 116.959 24.4629C116.701 24.3018 116.291 24.2212 115.728 24.2212H114.63V26.3262ZM114.63 26.959V29.3628H115.97C116.489 29.3628 116.878 29.2632 117.139 29.064C117.403 28.8618 117.535 28.5469 117.535 28.1191C117.535 27.7207 117.4 27.4277 117.13 27.2402C116.864 27.0527 116.456 26.959 115.909 26.959H114.63ZM128.985 26.7261C128.985 27.7866 128.696 28.5981 128.119 29.1606C127.545 29.7202 126.717 30 125.636 30H123.857V23.5752H125.825C126.824 23.5752 127.601 23.8521 128.154 24.4058C128.708 24.9595 128.985 25.7329 128.985 26.7261ZM128.194 26.7524C128.194 25.9146 127.983 25.2832 127.561 24.8584C127.142 24.4336 126.518 24.2212 125.689 24.2212H124.604V29.354H125.513C126.404 29.354 127.073 29.1357 127.522 28.6992C127.97 28.2598 128.194 27.6108 128.194 26.7524ZM134.004 30H130.422V23.5752H134.004V24.2388H131.169V26.3086H133.832V26.9678H131.169V29.332H134.004V30ZM139.101 23.5752H139.905L137.589 30H136.851L134.548 23.5752H135.339L136.816 27.7324C136.986 28.21 137.121 28.6743 137.22 29.1255C137.326 28.6509 137.463 28.1777 137.633 27.7061L139.101 23.5752ZM144.375 30H140.793V23.5752H144.375V24.2388H141.54V26.3086H144.203V26.9678H141.54V29.332H144.375V30ZM145.803 30V23.5752H146.55V29.3232H149.384V30H145.803ZM156.055 26.7788C156.055 27.8071 155.795 28.6157 155.273 29.2046C154.754 29.7935 154.032 30.0879 153.107 30.0879C152.16 30.0879 151.429 29.7993 150.914 29.2222C150.401 28.6421 150.145 27.8247 150.145 26.77C150.145 25.7241 150.402 24.9141 150.918 24.3398C151.434 23.7627 152.166 23.4741 153.115 23.4741C154.038 23.4741 154.759 23.7671 155.277 24.353C155.796 24.939 156.055 25.7476 156.055 26.7788ZM150.936 26.7788C150.936 27.6489 151.12 28.3096 151.489 28.7607C151.861 29.209 152.4 29.4331 153.107 29.4331C153.818 29.4331 154.356 29.209 154.719 28.7607C155.083 28.3125 155.264 27.6519 155.264 26.7788C155.264 25.9146 155.083 25.2598 154.719 24.8145C154.359 24.3662 153.824 24.1421 153.115 24.1421C152.403 24.1421 151.861 24.3677 151.489 24.8188C151.12 25.2671 150.936 25.9204 150.936 26.7788ZM161.566 25.4473C161.566 26.0977 161.343 26.5986 160.898 26.9502C160.456 27.2988 159.821 27.4731 158.995 27.4731H158.239V30H157.492V23.5752H159.158C160.763 23.5752 161.566 24.1992 161.566 25.4473ZM158.239 26.8315H158.912C159.574 26.8315 160.053 26.7246 160.349 26.5107C160.645 26.2969 160.793 25.9541 160.793 25.4824C160.793 25.0576 160.653 24.7412 160.375 24.5332C160.097 24.3252 159.663 24.2212 159.074 24.2212H158.239V26.8315ZM166.497 30H162.915V23.5752H166.497V24.2388H163.662V26.3086H166.325V26.9678H163.662V29.332H166.497V30ZM168.672 27.3281V30H167.925V23.5752H169.687C170.475 23.5752 171.057 23.7261 171.432 24.0278C171.81 24.3296 171.999 24.7837 171.999 25.3901C171.999 26.2397 171.568 26.814 170.707 27.1128L172.451 30H171.568L170.012 27.3281H168.672ZM168.672 26.6865H169.696C170.223 26.6865 170.61 26.5825 170.856 26.3745C171.102 26.1636 171.225 25.8486 171.225 25.4297C171.225 25.0049 171.099 24.6987 170.847 24.5112C170.598 24.3237 170.197 24.23 169.643 24.23H168.672V26.6865Z" fill="#112730"/>
<path d="M44.0801 17V7.00586H46.7803V14.8193H50.6289V17H44.0801ZM55.8105 17.1367C54.5208 17.1367 53.5182 16.7949 52.8027 16.1113C52.0918 15.4232 51.7363 14.4456 51.7363 13.1787C51.7363 11.8708 52.0667 10.8682 52.7275 10.1709C53.3883 9.46908 54.3317 9.11816 55.5576 9.11816C56.7243 9.11816 57.6243 9.4235 58.2578 10.0342C58.8958 10.6403 59.2148 11.5153 59.2148 12.6592V13.8486H54.4365C54.4548 14.2816 54.612 14.6211 54.9082 14.8672C55.209 15.1133 55.6169 15.2363 56.1318 15.2363C56.6012 15.2363 57.0319 15.193 57.4238 15.1064C57.8203 15.0153 58.2487 14.8626 58.709 14.6484V16.5693C58.2897 16.7835 57.8568 16.9316 57.4102 17.0137C56.9635 17.0957 56.4303 17.1367 55.8105 17.1367ZM55.6533 10.9365C55.3389 10.9365 55.0745 11.0368 54.8604 11.2373C54.6507 11.4333 54.5277 11.7432 54.4912 12.167H56.7881C56.779 11.7933 56.6719 11.4948 56.4668 11.2715C56.2663 11.0482 55.9951 10.9365 55.6533 10.9365ZM65.6133 17V12.7754C65.6133 12.2604 65.5381 11.873 65.3877 11.6133C65.2419 11.349 65.0049 11.2168 64.6768 11.2168C64.2256 11.2168 63.8997 11.3968 63.6992 11.7568C63.4987 12.1169 63.3984 12.7344 63.3984 13.6094V17H60.7256V9.25488H62.7422L63.0771 10.2119H63.2344C63.4622 9.84733 63.7767 9.57389 64.1777 9.3916C64.5833 9.20931 65.0482 9.11816 65.5723 9.11816C66.429 9.11816 67.0944 9.36654 67.5684 9.86328C68.0469 10.36 68.2861 11.0596 68.2861 11.9619V17H65.6133ZM74.9922 17V12.7754C74.9922 12.2604 74.917 11.873 74.7666 11.6133C74.6208 11.349 74.3838 11.2168 74.0557 11.2168C73.6045 11.2168 73.2786 11.3968 73.0781 11.7568C72.8776 12.1169 72.7773 12.7344 72.7773 13.6094V17H70.1045V9.25488H72.1211L72.4561 10.2119H72.6133C72.8411 9.84733 73.1556 9.57389 73.5566 9.3916C73.9622 9.20931 74.4271 9.11816 74.9512 9.11816C75.8079 9.11816 76.4733 9.36654 76.9473 9.86328C77.4258 10.36 77.665 11.0596 77.665 11.9619V17H74.9922ZM83.2227 17.1367C81.9329 17.1367 80.9303 16.7949 80.2148 16.1113C79.5039 15.4232 79.1484 14.4456 79.1484 13.1787C79.1484 11.8708 79.4788 10.8682 80.1396 10.1709C80.8005 9.46908 81.7438 9.11816 82.9697 9.11816C84.1364 9.11816 85.0365 9.4235 85.6699 10.0342C86.3079 10.6403 86.627 11.5153 86.627 12.6592V13.8486H81.8486C81.8669 14.2816 82.0241 14.6211 82.3203 14.8672C82.6211 15.1133 83.029 15.2363 83.5439 15.2363C84.0133 15.2363 84.444 15.193 84.8359 15.1064C85.2324 15.0153 85.6608 14.8626 86.1211 14.6484V16.5693C85.7018 16.7835 85.2689 16.9316 84.8223 17.0137C84.3757 17.0957 83.8424 17.1367 83.2227 17.1367ZM83.0654 10.9365C82.751 10.9365 82.4867 11.0368 82.2725 11.2373C82.0628 11.4333 81.9398 11.7432 81.9033 12.167H84.2002C84.1911 11.7933 84.084 11.4948 83.8789 11.2715C83.6784 11.0482 83.4072 10.9365 83.0654 10.9365ZM92.8135 9.11816C93.0459 9.11816 93.2669 9.13639 93.4766 9.17285L93.627 9.2002L93.3877 11.7227C93.1689 11.668 92.8659 11.6406 92.4785 11.6406C91.8952 11.6406 91.4714 11.7751 91.207 12.0439C90.9427 12.3083 90.8105 12.6911 90.8105 13.1924V17H88.1377V9.25488H90.127L90.5439 10.4922H90.6738C90.8971 10.082 91.207 9.75163 91.6035 9.50098C92.0046 9.24577 92.4079 9.11816 92.8135 9.11816ZM98.5078 15.0244C98.8678 15.0244 99.2985 14.9355 99.7998 14.7578V16.7061C99.4398 16.861 99.0957 16.9704 98.7676 17.0342C98.444 17.1025 98.0635 17.1367 97.626 17.1367C96.7282 17.1367 96.0811 16.918 95.6846 16.4805C95.2881 16.0384 95.0898 15.3617 95.0898 14.4502V11.2578H94.1533V10.1709L95.3428 9.33008L96.0332 7.70312H97.7832V9.25488H99.6836V11.2578H97.7832V14.2725C97.7832 14.7738 98.0247 15.0244 98.5078 15.0244ZM111.482 13.9648C111.482 14.5846 111.325 15.1361 111.011 15.6191C110.696 16.0977 110.243 16.4714 109.65 16.7402C109.058 17.0046 108.363 17.1367 107.565 17.1367C106.9 17.1367 106.342 17.0911 105.891 17C105.439 16.9043 104.97 16.7402 104.482 16.5078V14.1016C104.997 14.3659 105.533 14.5732 106.089 14.7236C106.645 14.8695 107.155 14.9424 107.62 14.9424C108.021 14.9424 108.315 14.874 108.502 14.7373C108.689 14.596 108.782 14.416 108.782 14.1973C108.782 14.0605 108.743 13.9421 108.666 13.8418C108.593 13.737 108.472 13.6322 108.304 13.5273C108.14 13.4225 107.698 13.2083 106.978 12.8848C106.326 12.5885 105.836 12.3014 105.508 12.0234C105.184 11.7454 104.943 11.4264 104.783 11.0664C104.628 10.7064 104.551 10.2803 104.551 9.78809C104.551 8.86751 104.886 8.14974 105.556 7.63477C106.226 7.11979 107.146 6.8623 108.317 6.8623C109.352 6.8623 110.407 7.10156 111.482 7.58008L110.655 9.66504C109.721 9.23665 108.914 9.02246 108.235 9.02246C107.884 9.02246 107.629 9.08398 107.47 9.20703C107.31 9.33008 107.23 9.48275 107.23 9.66504C107.23 9.861 107.331 10.0365 107.531 10.1914C107.736 10.3464 108.288 10.6289 109.186 11.0391C110.047 11.4264 110.644 11.8434 110.977 12.29C111.314 12.7321 111.482 13.2904 111.482 13.9648ZM115.543 17H112.87V6.36328H115.543V17ZM122.447 17L121.935 15.9746H121.88C121.52 16.4212 121.153 16.7266 120.779 16.8906C120.406 17.0547 119.923 17.1367 119.33 17.1367C118.601 17.1367 118.027 16.918 117.607 16.4805C117.188 16.043 116.979 15.4277 116.979 14.6348C116.979 13.8099 117.266 13.1969 117.84 12.7959C118.414 12.3903 119.246 12.1624 120.335 12.1123L121.627 12.0713V11.9619C121.627 11.3239 121.312 11.0049 120.684 11.0049C120.118 11.0049 119.401 11.1963 118.53 11.5791L117.758 9.81543C118.66 9.35059 119.799 9.11816 121.176 9.11816C122.169 9.11816 122.937 9.36426 123.479 9.85645C124.026 10.3486 124.3 11.0368 124.3 11.9209V17H122.447ZM120.465 15.25C120.788 15.25 121.064 15.1475 121.292 14.9424C121.524 14.7373 121.641 14.4707 121.641 14.1426V13.541L121.025 13.5684C120.146 13.6003 119.706 13.9238 119.706 14.5391C119.706 15.013 119.959 15.25 120.465 15.25ZM130.849 9.11816C131.692 9.11816 132.359 9.47135 132.852 10.1777C133.348 10.8841 133.597 11.8617 133.597 13.1104C133.597 14.3682 133.346 15.3548 132.845 16.0703C132.348 16.7812 131.655 17.1367 130.767 17.1367C130.479 17.1367 130.224 17.1048 130.001 17.041C129.778 16.9818 129.577 16.8975 129.399 16.7881C129.226 16.6787 129.023 16.4964 128.791 16.2412H128.627L128.203 17H126.118V6.36328H128.791V8.76953C128.791 9.05664 128.759 9.55111 128.695 10.2529H128.791C129.051 9.85189 129.349 9.5625 129.687 9.38477C130.028 9.20703 130.416 9.11816 130.849 9.11816ZM129.871 11.2168C129.497 11.2168 129.224 11.3467 129.051 11.6064C128.878 11.8662 128.791 12.2741 128.791 12.8301V13.2061C128.791 13.8395 128.878 14.2952 129.051 14.5732C129.224 14.8467 129.507 14.9834 129.898 14.9834C130.213 14.9834 130.454 14.8239 130.623 14.5049C130.792 14.1813 130.876 13.7074 130.876 13.083C130.876 11.8389 130.541 11.2168 129.871 11.2168ZM139.858 9.11816C140.701 9.11816 141.369 9.47135 141.861 10.1777C142.358 10.8841 142.606 11.8617 142.606 13.1104C142.606 14.3682 142.356 15.3548 141.854 16.0703C141.358 16.7812 140.665 17.1367 139.776 17.1367C139.489 17.1367 139.234 17.1048 139.011 17.041C138.787 16.9818 138.587 16.8975 138.409 16.7881C138.236 16.6787 138.033 16.4964 137.801 16.2412H137.637L137.213 17H135.128V6.36328H137.801V8.76953C137.801 9.05664 137.769 9.55111 137.705 10.2529H137.801C138.061 9.85189 138.359 9.5625 138.696 9.38477C139.038 9.20703 139.425 9.11816 139.858 9.11816ZM138.881 11.2168C138.507 11.2168 138.234 11.3467 138.061 11.6064C137.887 11.8662 137.801 12.2741 137.801 12.8301V13.2061C137.801 13.8395 137.887 14.2952 138.061 14.5732C138.234 14.8467 138.516 14.9834 138.908 14.9834C139.223 14.9834 139.464 14.8239 139.633 14.5049C139.801 14.1813 139.886 13.7074 139.886 13.083C139.886 11.8389 139.551 11.2168 138.881 11.2168ZM146.824 17H144.151V9.25488H146.824V17ZM144.083 7.32715C144.083 6.92611 144.195 6.6276 144.418 6.43164C144.641 6.23568 145.001 6.1377 145.498 6.1377C145.995 6.1377 146.357 6.23796 146.585 6.43848C146.813 6.639 146.927 6.93522 146.927 7.32715C146.927 8.111 146.451 8.50293 145.498 8.50293C144.555 8.50293 144.083 8.111 144.083 7.32715ZM153.578 17V12.7754C153.578 12.2604 153.503 11.873 153.353 11.6133C153.207 11.349 152.97 11.2168 152.642 11.2168C152.19 11.2168 151.865 11.3968 151.664 11.7568C151.464 12.1169 151.363 12.7344 151.363 13.6094V17H148.69V9.25488H150.707L151.042 10.2119H151.199C151.427 9.84733 151.742 9.57389 152.143 9.3916C152.548 9.20931 153.013 9.11816 153.537 9.11816C154.394 9.11816 155.059 9.36654 155.533 9.86328C156.012 10.36 156.251 11.0596 156.251 11.9619V17H153.578ZM161.597 17.1367C160.33 17.1367 159.368 16.7949 158.712 16.1113C158.06 15.4277 157.734 14.4456 157.734 13.165C157.734 11.8799 158.088 10.8841 158.794 10.1777C159.5 9.47135 160.505 9.11816 161.809 9.11816C162.706 9.11816 163.552 9.31413 164.345 9.70605L163.559 11.6816C163.235 11.5404 162.937 11.4287 162.663 11.3467C162.39 11.2601 162.105 11.2168 161.809 11.2168C161.376 11.2168 161.041 11.3854 160.804 11.7227C160.567 12.0599 160.448 12.5361 160.448 13.1514C160.448 14.391 160.906 15.0107 161.822 15.0107C162.606 15.0107 163.358 14.7829 164.078 14.3271V16.4531C163.39 16.9089 162.563 17.1367 161.597 17.1367ZM168.207 12.6455C168.531 12.1305 168.806 11.7295 169.034 11.4424L170.771 9.25488H173.751L171.064 12.5498L173.922 17H170.866L169.171 14.2246L168.303 14.8877V17H165.616V6.36328H168.303V10.5469C168.303 11.2624 168.253 11.9619 168.152 12.6455H168.207Z" fill="#112730"/>
<path d="M15.0781 23V11.5781H18.1641V20.5078H22.5625V23H15.0781Z" fill="#112730"/>
<circle cx="18" cy="17" r="16" stroke="#112730" stroke-width="2"/>
</svg>
